<svg width="256" height="256" viewBox="0 0 256 256" fill="none" xmlns="http://www.w3.org/2000/svg">
<path d="M86.8571 84.6562C88.6758 84.6562 90.4199 83.9352 91.7059 82.6518C92.9918 81.3683 93.7143 79.6276 93.7143 77.8125C93.7143 75.9974 92.9918 74.2567 91.7059 72.9732C90.4199 71.6898 88.6758 70.9688 86.8571 70.9688C85.0385 70.9688 83.2944 71.6898 82.0084 72.9732C80.7224 74.2567 80 75.9974 80 77.8125C80 79.6276 80.7224 81.3683 82.0084 82.6518C83.2944 83.9352 85.0385 84.6562 86.8571 84.6562ZM109.714 77.8125C109.714 87.1656 104.086 95.207 96 98.7145V123.751C101.371 120.643 107.629 118.875 114.286 118.875H141.714C151.8 118.875 160 110.691 160 100.625V98.7145C151.914 95.207 146.286 87.1656 146.286 77.8125C146.286 65.2086 156.514 55 169.143 55C181.771 55 192 65.2086 192 77.8125C192 87.1656 186.371 95.207 178.286 98.7145V100.625C178.286 120.786 161.914 137.125 141.714 137.125H114.286C104.2 137.125 96 145.309 96 155.375V157.286C104.086 160.793 109.714 168.834 109.714 178.188C109.714 190.791 99.4857 201 86.8571 201C74.2286 201 64 190.791 64 178.188C64 168.834 69.6286 160.793 77.7143 157.286V98.7145C69.6286 95.207 64 87.1656 64 77.8125C64 65.2086 74.2286 55 86.8571 55C99.4857 55 109.714 65.2086 109.714 77.8125ZM176 77.8125C176 75.9974 175.278 74.2567 173.992 72.9732C172.706 71.6898 170.961 70.9688 169.143 70.9688C167.324 70.9688 165.58 71.6898 164.294 72.9732C163.008 74.2567 162.286 75.9974 162.286 77.8125C162.286 79.6276 163.008 81.3683 164.294 82.6518C165.58 83.9352 167.324 84.6562 169.143 84.6562C170.961 84.6562 172.706 83.9352 173.992 82.6518C175.278 81.3683 176 79.6276 176 77.8125ZM86.8571 185.031C88.6758 185.031 90.4199 184.31 91.7059 183.027C92.9918 181.743 93.7143 180.003 93.7143 178.188C93.7143 176.372 92.9918 174.632 91.7059 173.348C90.4199 172.065 88.6758 171.344 86.8571 171.344C85.0385 171.344 83.2944 172.065 82.0084 173.348C80.7224 174.632 80 176.372 80 178.188C80 180.003 80.7224 181.743 82.0084 183.027C83.2944 184.31 85.0385 185.031 86.8571 185.031Z" fill="url(#paint0_linear_1_16)"/>
<path d="M138.56 187L129.872 160.6H136.016L141.056 176.632C141.344 177.592 141.616 178.584 141.872 179.608C142.16 180.632 142.368 181.448 142.496 182.056C142.656 181.448 142.864 180.632 143.12 179.608C143.376 178.584 143.632 177.608 143.888 176.68L148.832 160.6H154.928L146.288 187H138.56Z" fill="url(#paint1_linear_1_16)"/>
<path d="M160.813 187V181.72H169.933V157.288L160.765 164.104V157.768L168.829 151.96H175.933V181.72H183.277V187H160.813Z" fill="url(#paint2_linear_1_16)"/>
<defs>
<linearGradient id="paint0_linear_1_16" x1="128" y1="55" x2="128" y2="201" gradientUnits="userSpaceOnUse">
<stop stop-color="#CC55FF"/>
<stop offset="1" stop-color="#55CCFF"/>
</linearGradient>
<linearGradient id="paint1_linear_1_16" x1="128" y1="55" x2="128" y2="201" gradientUnits="userSpaceOnUse">
<stop stop-color="#CC55FF"/>
<stop offset="1" stop-color="#55CCFF"/>
</linearGradient>
<linearGradient id="paint2_linear_1_16" x1="128" y1="55" x2="128" y2="201" gradientUnits="userSpaceOnUse">
<stop stop-color="#CC55FF"/>
<stop offset="1" stop-color="#55CCFF"/>
</linearGradient>
</defs>
</svg>
